<svg width="26" height="24" viewBox="0 0 26 24" fill="none" xmlns="http://www.w3.org/2000/svg">
<path d="M6.47231 18.6857H0.685714C0.307005 18.6857 0 18.3787 0 18V16.9714C0 16.5927 0.307005 16.2857 0.685714 16.2857H4.74241C5.81935 16.2857 6.84941 15.8452 7.59334 15.0665L14.182 8.16996C15.0877 7.22199 16.3417 6.68571 17.6527 6.68571H25.0286C25.4073 6.68571 25.7143 6.99272 25.7143 7.37143V10.9714C25.7143 11.3501 25.4073 11.6571 25.0286 11.6571H18.6964C17.743 11.6571 16.8148 11.9628 16.048 12.5293L8.71324 17.9477C8.06441 18.4271 7.27899 18.6857 6.47231 18.6857Z" fill="black"/>
<path d="M0 12.6857V2.05714C0 0.921014 0.921014 0 2.05714 0H24.6857C25.2538 0 25.7143 0.460507 25.7143 1.02857V2.57143C25.7143 2.95014 25.4073 3.25714 25.0286 3.25714H16.4823C14.8386 3.25714 13.2816 3.99414 12.2397 5.26531L5.82867 13.0867C5.50306 13.484 5.01649 13.7143 4.50286 13.7143H1.02857C0.460507 13.7143 0 13.2538 0 12.6857Z" fill="black"/>
<path d="M25.7143 16.1143V21.9429C25.7143 23.079 24.7933 24 23.6571 24L1.02857 24C0.460508 24 -4.96618e-08 23.5395 0 22.9714L8.99202e-08 21.9429C1.23028e-07 21.5641 0.307005 21.2571 0.685714 21.2571L7.65159 21.2571C8.36448 21.2571 9.06277 21.0551 9.66551 20.6744L17.1722 15.9333C18.049 15.3796 19.0647 15.0857 20.1016 15.0857H24.6857C25.2538 15.0857 25.7143 15.5462 25.7143 16.1143Z" fill="black"/>
</svg>
